<svg width="1320" height="504" viewBox="0 0 1320 504" fill="none" xmlns="http://www.w3.org/2000/svg">
<path d="M485.5 306V301C485.5 299.011 486.29 297.103 487.697 295.697C489.103 294.29 491.011 293.5 493 293.5C494.989 293.5 496.897 294.29 498.303 295.697C499.71 297.103 500.5 299.011 500.5 301V306" stroke="#E7E1FF" stroke-width="2.5" stroke-linecap="round" stroke-linejoin="round"/>
<path d="M500.5 306.833C500.5 307.275 500.324 307.699 500.012 308.011C499.699 308.324 499.275 308.499 498.833 308.499H498C497.558 308.499 497.134 308.324 496.821 308.011C496.509 307.699 496.333 307.275 496.333 306.833V304.333C496.333 303.891 496.509 303.467 496.821 303.154C497.134 302.842 497.558 302.666 498 302.666H500.5V306.833ZM485.5 306.833C485.5 307.275 485.676 307.699 485.988 308.011C486.301 308.324 486.725 308.499 487.167 308.499H488C488.442 308.499 488.866 308.324 489.179 308.011C489.491 307.699 489.667 307.275 489.667 306.833V304.333C489.667 303.891 489.491 303.467 489.179 303.154C488.866 302.842 488.442 302.666 488 302.666H485.5V306.833Z" stroke="#E7E1FF" stroke-width="2.5" stroke-linecap="round" stroke-linejoin="round"/>
<path d="M357.369 296.842C356.943 296.416 356.438 296.079 355.882 295.848C355.326 295.618 354.729 295.499 354.127 295.499C353.525 295.499 352.929 295.618 352.373 295.848C351.817 296.079 351.311 296.416 350.886 296.842L350.002 297.726L349.119 296.842C348.259 295.982 347.093 295.499 345.877 295.499C344.662 295.499 343.495 295.982 342.636 296.842C341.776 297.702 341.293 298.868 341.293 300.084C341.293 301.3 341.776 302.466 342.636 303.326L343.519 304.209L350.002 310.692L356.486 304.209L357.369 303.326C357.795 302.9 358.133 302.395 358.363 301.838C358.594 301.282 358.712 300.686 358.712 300.084C358.712 299.482 358.594 298.886 358.363 298.329C358.133 297.773 357.795 297.268 357.369 296.842V296.842Z" stroke="#E7E1FF" stroke-width="1.66667" stroke-linecap="round" stroke-linejoin="round"/>
<path d="M75.5 103V98C75.5 96.0109 76.2902 94.1032 77.6967 92.6967C79.1032 91.2902 81.0109 90.5 83 90.5C84.9891 90.5 86.8968 91.2902 88.3033 92.6967C89.7098 94.1032 90.5 96.0109 90.5 98V103" stroke="#E7E1FF" stroke-opacity="0.7" stroke-width="2.5" stroke-linecap="round" stroke-linejoin="round"/>
<path d="M90.5 103.833C90.5 104.275 90.3244 104.699 90.0118 105.011C89.6993 105.324 89.2754 105.499 88.8333 105.499H88C87.558 105.499 87.134 105.324 86.8215 105.011C86.5089 104.699 86.3333 104.275 86.3333 103.833V101.333C86.3333 100.891 86.5089 100.467 86.8215 100.154C87.134 99.8416 87.558 99.666 88 99.666H90.5V103.833ZM75.5 103.833C75.5 104.275 75.6756 104.699 75.9882 105.011C76.3007 105.324 76.7246 105.499 77.1667 105.499H78C78.442 105.499 78.866 105.324 79.1785 105.011C79.4911 104.699 79.6667 104.275 79.6667 103.833V101.333C79.6667 100.891 79.4911 100.467 79.1785 100.154C78.866 99.8416 78.442 99.666 78 99.666H75.5V103.833Z" stroke="#E7E1FF" stroke-opacity="0.7" stroke-width="2.5" stroke-linecap="round" stroke-linejoin="round"/>
<path d="M223.369 91.8422C222.943 91.4164 222.438 91.0786 221.882 90.8481C221.326 90.6176 220.729 90.499 220.127 90.499C219.525 90.499 218.929 90.6176 218.373 90.8481C217.817 91.0786 217.311 91.4164 216.886 91.8422L216.002 92.7255L215.119 91.8422C214.259 90.9825 213.093 90.4995 211.877 90.4995C210.662 90.4995 209.495 90.9825 208.636 91.8422C207.776 92.702 207.293 93.868 207.293 95.0839C207.293 96.2997 207.776 97.4658 208.636 98.3255L209.519 99.2089L216.002 105.692L222.486 99.2089L223.369 98.3255C223.795 97.8999 224.133 97.3946 224.363 96.8383C224.594 96.2821 224.712 95.686 224.712 95.0839C224.712 94.4818 224.594 93.8856 224.363 93.3294C224.133 92.7732 223.795 92.2678 223.369 91.8422V91.8422Z" stroke="#E7E1FF" stroke-opacity="0.7" stroke-width="1.66667" stroke-linecap="round" stroke-linejoin="round"/>
<path d="M160.5 202.5C160.5 202.942 160.324 203.366 160.012 203.679C159.699 203.991 159.275 204.167 158.833 204.167H148.833L145.5 207.5V194.167C145.5 193.725 145.676 193.301 145.988 192.988C146.301 192.676 146.725 192.5 147.167 192.5H158.833C159.275 192.5 159.699 192.676 160.012 192.988C160.324 193.301 160.5 193.725 160.5 194.167V202.5Z" stroke="#E7E1FF" stroke-opacity="0.7" stroke-width="2.08333" stroke-linecap="round" stroke-linejoin="round"/>
<path d="M299.5 12.5C299.5 12.942 299.324 13.366 299.012 13.6785C298.699 13.9911 298.275 14.1667 297.833 14.1667H287.833L284.5 17.5V4.16667C284.5 3.72464 284.676 3.30072 284.988 2.98816C285.301 2.67559 285.725 2.5 286.167 2.5H297.833C298.275 2.5 298.699 2.67559 299.012 2.98816C299.324 3.30072 299.5 3.72464 299.5 4.16667V12.5Z" stroke="#E7E1FF" stroke-opacity="0.7" stroke-width="2.08333" stroke-linecap="round" stroke-linejoin="round"/>
<path d="M160.5 8.33301C160.5 14.1663 153 19.1663 153 19.1663C153 19.1663 145.5 14.1663 145.5 8.33301C145.5 6.34388 146.29 4.43623 147.697 3.02971C149.103 1.62318 151.011 0.833008 153 0.833008C154.989 0.833008 156.897 1.62318 158.303 3.02971C159.71 4.43623 160.5 6.34388 160.5 8.33301Z" stroke="#E7E1FF" stroke-opacity="0.7" stroke-width="1.66667" stroke-linecap="round" stroke-linejoin="round"/>
<path d="M153 10.833C154.381 10.833 155.5 9.71372 155.5 8.33301C155.5 6.9523 154.381 5.83301 153 5.83301C151.619 5.83301 150.5 6.9523 150.5 8.33301C150.5 9.71372 151.619 10.833 153 10.833Z" stroke="#E7E1FF" stroke-opacity="0.7" stroke-width="1.66667" stroke-linecap="round" stroke-linejoin="round"/>
<path d="M341.625 97.39L358.25 89.707L350.375 105.927L348.625 99.0973L341.625 97.39Z" stroke="#E7E1FF" stroke-opacity="0.7" stroke-width="1.96341" stroke-linecap="round" stroke-linejoin="round"/>
<path d="M490.369 91.8422C489.943 91.4164 489.438 91.0786 488.882 90.8481C488.326 90.6176 487.729 90.499 487.127 90.499C486.525 90.499 485.929 90.6176 485.373 90.8481C484.817 91.0786 484.311 91.4164 483.886 91.8422L483.002 92.7255L482.119 91.8422C481.259 90.9825 480.093 90.4995 478.877 90.4995C477.662 90.4995 476.495 90.9825 475.636 91.8422C474.776 92.702 474.293 93.868 474.293 95.0839C474.293 96.2997 474.776 97.4658 475.636 98.3255L476.519 99.2089L483.002 105.692L489.486 99.2089L490.369 98.3255C490.795 97.8999 491.133 97.3946 491.363 96.8383C491.594 96.2821 491.712 95.686 491.712 95.0839C491.712 94.4818 491.594 93.8856 491.363 93.3294C491.133 92.7732 490.795 92.2678 490.369 91.8422V91.8422Z" stroke="#E7E1FF" stroke-opacity="0.7" stroke-width="1.66667" stroke-linecap="round" stroke-linejoin="round"/>
<path d="M566.5 12.5C566.5 12.942 566.324 13.366 566.012 13.6785C565.699 13.9911 565.275 14.1667 564.833 14.1667H554.833L551.5 17.5V4.16667C551.5 3.72464 551.676 3.30072 551.988 2.98816C552.301 2.67559 552.725 2.5 553.167 2.5H564.833C565.275 2.5 565.699 2.67559 566.012 2.98816C566.324 3.30072 566.5 3.72464 566.5 4.16667V12.5Z" stroke="#E7E1FF" stroke-opacity="0.7" stroke-width="2.08333" stroke-linecap="round" stroke-linejoin="round"/>
<path d="M427.5 8.33301C427.5 14.1663 420 19.1663 420 19.1663C420 19.1663 412.5 14.1663 412.5 8.33301C412.5 6.34388 413.29 4.43623 414.697 3.02971C416.103 1.62318 418.011 0.833008 420 0.833008C421.989 0.833008 423.897 1.62318 425.303 3.02971C426.71 4.43623 427.5 6.34388 427.5 8.33301Z" stroke="#E7E1FF" stroke-opacity="0.7" stroke-width="1.66667" stroke-linecap="round" stroke-linejoin="round"/>
<path d="M420 10.833C421.381 10.833 422.5 9.71372 422.5 8.33301C422.5 6.9523 421.381 5.83301 420 5.83301C418.619 5.83301 417.5 6.9523 417.5 8.33301C417.5 9.71372 418.619 10.833 420 10.833Z" stroke="#E7E1FF" stroke-opacity="0.7" stroke-width="1.66667" stroke-linecap="round" stroke-linejoin="round"/>
<path d="M153.369 383.842C152.943 383.416 152.438 383.079 151.882 382.848C151.326 382.618 150.729 382.499 150.127 382.499C149.525 382.499 148.929 382.618 148.373 382.848C147.817 383.079 147.311 383.416 146.886 383.842L146.002 384.726L145.119 383.842C144.259 382.982 143.093 382.499 141.877 382.499C140.662 382.499 139.495 382.982 138.636 383.842C137.776 384.702 137.293 385.868 137.293 387.084C137.293 388.3 137.776 389.466 138.636 390.326L139.519 391.209L146.002 397.692L152.486 391.209L153.369 390.326C153.795 389.9 154.133 389.395 154.363 388.838C154.594 388.282 154.712 387.686 154.712 387.084C154.712 386.482 154.594 385.886 154.363 385.329C154.133 384.773 153.795 384.268 153.369 383.842V383.842Z" stroke="#E7E1FF" stroke-opacity="0.7" stroke-width="1.66667" stroke-linecap="round" stroke-linejoin="round"/>
<path d="M214.5 489.499L222 483.666L229.5 489.499V498.666C229.5 499.108 229.324 499.532 229.012 499.845C228.699 500.157 228.275 500.333 227.833 500.333H216.167C215.725 500.333 215.301 500.157 214.988 499.845C214.676 499.532 214.5 499.108 214.5 498.666V489.499Z" stroke="#E7E1FF" stroke-opacity="0.7" stroke-width="2.08333" stroke-linecap="round" stroke-linejoin="round"/>
<path d="M219.5 500.333V492H224.5V500.333" stroke="#E7E1FF" stroke-opacity="0.7" stroke-width="2.08333" stroke-linecap="round" stroke-linejoin="round"/>
<path d="M229.5 304.5C229.5 304.942 229.324 305.366 229.012 305.679C228.699 305.991 228.275 306.167 227.833 306.167H217.833L214.5 309.5V296.167C214.5 295.725 214.676 295.301 214.988 294.988C215.301 294.676 215.725 294.5 216.167 294.5H227.833C228.275 294.5 228.699 294.676 229.012 294.988C229.324 295.301 229.5 295.725 229.5 296.167V304.5Z" stroke="#E7E1FF" stroke-opacity="0.7" stroke-width="2.08333" stroke-linecap="round" stroke-linejoin="round"/>
<path d="M90.5 300.333C90.5 306.166 83 311.166 83 311.166C83 311.166 75.5 306.166 75.5 300.333C75.5 298.344 76.2902 296.436 77.6967 295.03C79.1032 293.623 81.0109 292.833 83 292.833C84.9891 292.833 86.8968 293.623 88.3033 295.03C89.7098 296.436 90.5 298.344 90.5 300.333Z" stroke="#E7E1FF" stroke-opacity="0.7" stroke-width="1.66667" stroke-linecap="round" stroke-linejoin="round"/>
<path d="M83 302.833C84.3807 302.833 85.5 301.714 85.5 300.333C85.5 298.952 84.3807 297.833 83 297.833C81.6193 297.833 80.5 298.952 80.5 300.333C80.5 301.714 81.6193 302.833 83 302.833Z" stroke="#E7E1FF" stroke-opacity="0.7" stroke-width="1.66667" stroke-linecap="round" stroke-linejoin="round"/>
<path d="M271.625 389.39L288.25 381.707L280.375 397.927L278.625 391.097L271.625 389.39Z" stroke="#E7E1FF" stroke-opacity="0.7" stroke-width="1.96341" stroke-linecap="round" stroke-linejoin="round"/>
<path d="M420.369 383.842C419.943 383.416 419.438 383.079 418.882 382.848C418.326 382.618 417.729 382.499 417.127 382.499C416.525 382.499 415.929 382.618 415.373 382.848C414.817 383.079 414.311 383.416 413.886 383.842L413.002 384.726L412.119 383.842C411.259 382.982 410.093 382.499 408.877 382.499C407.662 382.499 406.495 382.982 405.636 383.842C404.776 384.702 404.293 385.868 404.293 387.084C404.293 388.3 404.776 389.466 405.636 390.326L406.519 391.209L413.002 397.692L419.486 391.209L420.369 390.326C420.795 389.9 421.133 389.395 421.363 388.838C421.594 388.282 421.712 387.686 421.712 387.084C421.712 386.482 421.594 385.886 421.363 385.329C421.133 384.773 420.795 384.268 420.369 383.842V383.842Z" stroke="#E7E1FF" stroke-opacity="0.7" stroke-width="1.66667" stroke-linecap="round" stroke-linejoin="round"/>
<path d="M481.5 489.499L489 483.666L496.5 489.499V498.666C496.5 499.108 496.324 499.532 496.012 499.845C495.699 500.157 495.275 500.333 494.833 500.333H483.167C482.725 500.333 482.301 500.157 481.988 499.845C481.676 499.532 481.5 499.108 481.5 498.666V489.499Z" stroke="#E7E1FF" stroke-opacity="0.7" stroke-width="2.08333" stroke-linecap="round" stroke-linejoin="round"/>
<path d="M486.5 500.333V492H491.5V500.333" stroke="#E7E1FF" stroke-opacity="0.7" stroke-width="2.08333" stroke-linecap="round" stroke-linejoin="round"/>
<path d="M357.5 494.5C357.5 494.942 357.324 495.366 357.012 495.679C356.699 495.991 356.275 496.167 355.833 496.167H345.833L342.5 499.5V486.167C342.5 485.725 342.676 485.301 342.988 484.988C343.301 484.676 343.725 484.5 344.167 484.5H355.833C356.275 484.5 356.699 484.676 357.012 484.988C357.324 485.301 357.5 485.725 357.5 486.167V494.5Z" stroke="#E7E1FF" stroke-opacity="0.7" stroke-width="2.08333" stroke-linecap="round" stroke-linejoin="round"/>
<path d="M548.625 389.39L565.25 381.707L557.375 397.927L555.625 391.097L548.625 389.39Z" stroke="#E7E1FF" stroke-opacity="0.7" stroke-width="1.96341" stroke-linecap="round" stroke-linejoin="round"/>
<path d="M620.5 103V98C620.5 96.0109 621.29 94.1032 622.697 92.6967C624.103 91.2902 626.011 90.5 628 90.5C629.989 90.5 631.897 91.2902 633.303 92.6967C634.71 94.1032 635.5 96.0109 635.5 98V103" stroke="#E7E1FF" stroke-opacity="0.7" stroke-width="2.5" stroke-linecap="round" stroke-linejoin="round"/>
<path d="M635.5 103.833C635.5 104.275 635.324 104.699 635.012 105.011C634.699 105.324 634.275 105.499 633.833 105.499H633C632.558 105.499 632.134 105.324 631.821 105.011C631.509 104.699 631.333 104.275 631.333 103.833V101.333C631.333 100.891 631.509 100.467 631.821 100.154C632.134 99.8416 632.558 99.666 633 99.666H635.5V103.833ZM620.5 103.833C620.5 104.275 620.676 104.699 620.988 105.011C621.301 105.324 621.725 105.499 622.167 105.499H623C623.442 105.499 623.866 105.324 624.179 105.011C624.491 104.699 624.667 104.275 624.667 103.833V101.333C624.667 100.891 624.491 100.467 624.179 100.154C623.866 99.8416 623.442 99.666 623 99.666H620.5V103.833Z" stroke="#E7E1FF" stroke-opacity="0.7" stroke-width="2.5" stroke-linecap="round" stroke-linejoin="round"/>
<path d="M768.369 91.8422C767.943 91.4164 767.438 91.0786 766.882 90.8481C766.326 90.6176 765.729 90.499 765.127 90.499C764.525 90.499 763.929 90.6176 763.373 90.8481C762.817 91.0786 762.311 91.4164 761.886 91.8422L761.002 92.7255L760.119 91.8422C759.259 90.9825 758.093 90.4995 756.877 90.4995C755.662 90.4995 754.495 90.9825 753.636 91.8422C752.776 92.702 752.293 93.868 752.293 95.0839C752.293 96.2997 752.776 97.4658 753.636 98.3255L754.519 99.2089L761.002 105.692L767.486 99.2089L768.369 98.3255C768.795 97.8999 769.133 97.3946 769.363 96.8383C769.594 96.2821 769.712 95.686 769.712 95.0839C769.712 94.4818 769.594 93.8856 769.363 93.3294C769.133 92.7732 768.795 92.2678 768.369 91.8422V91.8422Z" stroke="#E7E1FF" stroke-opacity="0.7" stroke-width="1.66667" stroke-linecap="round" stroke-linejoin="round"/>
<path d="M829.5 197.499L837 191.666L844.5 197.499V206.666C844.5 207.108 844.324 207.532 844.012 207.845C843.699 208.157 843.275 208.333 842.833 208.333H831.167C830.725 208.333 830.301 208.157 829.988 207.845C829.676 207.532 829.5 207.108 829.5 206.666V197.499Z" stroke="#E7E1FF" stroke-opacity="0.7" stroke-width="2.08333" stroke-linecap="round" stroke-linejoin="round"/>
<path d="M834.5 208.333V200H839.5V208.333" stroke="#E7E1FF" stroke-opacity="0.7" stroke-width="2.08333" stroke-linecap="round" stroke-linejoin="round"/>
<path d="M705.5 202.5C705.5 202.942 705.324 203.366 705.012 203.679C704.699 203.991 704.275 204.167 703.833 204.167H693.833L690.5 207.5V194.167C690.5 193.725 690.676 193.301 690.988 192.988C691.301 192.676 691.725 192.5 692.167 192.5H703.833C704.275 192.5 704.699 192.676 705.012 192.988C705.324 193.301 705.5 193.725 705.5 194.167V202.5Z" stroke="#E7E1FF" stroke-opacity="0.7" stroke-width="2.08333" stroke-linecap="round" stroke-linejoin="round"/>
<path d="M844.5 12.5C844.5 12.942 844.324 13.366 844.012 13.6785C843.699 13.9911 843.275 14.1667 842.833 14.1667H832.833L829.5 17.5V4.16667C829.5 3.72464 829.676 3.30072 829.988 2.98816C830.301 2.67559 830.725 2.5 831.167 2.5H842.833C843.275 2.5 843.699 2.67559 844.012 2.98816C844.324 3.30072 844.5 3.72464 844.5 4.16667V12.5Z" stroke="#E7E1FF" stroke-opacity="0.7" stroke-width="2.08333" stroke-linecap="round" stroke-linejoin="round"/>
<path d="M705.5 8.33301C705.5 14.1663 698 19.1663 698 19.1663C698 19.1663 690.5 14.1663 690.5 8.33301C690.5 6.34388 691.29 4.43623 692.697 3.02971C694.103 1.62318 696.011 0.833008 698 0.833008C699.989 0.833008 701.897 1.62318 703.303 3.02971C704.71 4.43623 705.5 6.34388 705.5 8.33301Z" stroke="#E7E1FF" stroke-opacity="0.7" stroke-width="1.66667" stroke-linecap="round" stroke-linejoin="round"/>
<path d="M698 10.833C699.381 10.833 700.5 9.71372 700.5 8.33301C700.5 6.9523 699.381 5.83301 698 5.83301C696.619 5.83301 695.5 6.9523 695.5 8.33301C695.5 9.71372 696.619 10.833 698 10.833Z" stroke="#E7E1FF" stroke-opacity="0.7" stroke-width="1.66667" stroke-linecap="round" stroke-linejoin="round"/>
<path d="M886.625 97.39L903.25 89.707L895.375 105.927L893.625 99.0973L886.625 97.39Z" stroke="#E7E1FF" stroke-opacity="0.7" stroke-width="1.96341" stroke-linecap="round" stroke-linejoin="round"/>
<path d="M1035.37 91.8422C1034.94 91.4164 1034.44 91.0786 1033.88 90.8481C1033.33 90.6176 1032.73 90.499 1032.13 90.499C1031.53 90.499 1030.93 90.6176 1030.37 90.8481C1029.82 91.0786 1029.31 91.4164 1028.89 91.8422L1028 92.7255L1027.12 91.8422C1026.26 90.9825 1025.09 90.4995 1023.88 90.4995C1022.66 90.4995 1021.5 90.9825 1020.64 91.8422C1019.78 92.702 1019.29 93.868 1019.29 95.0839C1019.29 96.2997 1019.78 97.4658 1020.64 98.3255L1021.52 99.2089L1028 105.692L1034.49 99.2089L1035.37 98.3255C1035.79 97.8999 1036.13 97.3946 1036.36 96.8383C1036.59 96.2821 1036.71 95.686 1036.71 95.0839C1036.71 94.4818 1036.59 93.8856 1036.36 93.3294C1036.13 92.7732 1035.79 92.2678 1035.37 91.8422V91.8422Z" stroke="#E7E1FF" stroke-opacity="0.7" stroke-width="1.66667" stroke-linecap="round" stroke-linejoin="round"/>
<path d="M1096.5 197.499L1104 191.666L1111.5 197.499V206.666C1111.5 207.108 1111.32 207.532 1111.01 207.845C1110.7 208.157 1110.28 208.333 1109.83 208.333H1098.17C1097.72 208.333 1097.3 208.157 1096.99 207.845C1096.68 207.532 1096.5 207.108 1096.5 206.666V197.499Z" stroke="#E7E1FF" stroke-opacity="0.7" stroke-width="2.08333" stroke-linecap="round" stroke-linejoin="round"/>
<path d="M1101.5 208.333V200H1106.5V208.333" stroke="#E7E1FF" stroke-opacity="0.7" stroke-width="2.08333" stroke-linecap="round" stroke-linejoin="round"/>
<path d="M972.5 202.5C972.5 202.942 972.324 203.366 972.012 203.679C971.699 203.991 971.275 204.167 970.833 204.167H960.833L957.5 207.5V194.167C957.5 193.725 957.676 193.301 957.988 192.988C958.301 192.676 958.725 192.5 959.167 192.5H970.833C971.275 192.5 971.699 192.676 972.012 192.988C972.324 193.301 972.5 193.725 972.5 194.167V202.5Z" stroke="#E7E1FF" stroke-opacity="0.7" stroke-width="2.08333" stroke-linecap="round" stroke-linejoin="round"/>
<path d="M284.5 197.499L292 191.666L299.5 197.499V206.666C299.5 207.108 299.324 207.532 299.012 207.845C298.699 208.157 298.275 208.333 297.833 208.333H286.167C285.725 208.333 285.301 208.157 284.988 207.845C284.676 207.532 284.5 207.108 284.5 206.666V197.499Z" stroke="#E7E1FF" stroke-opacity="0.7" stroke-width="2.08333" stroke-linecap="round" stroke-linejoin="round"/>
<path d="M289.5 208.333V200H294.5V208.333" stroke="#E7E1FF" stroke-opacity="0.7" stroke-width="2.08333" stroke-linecap="round" stroke-linejoin="round"/>
<path d="M427.5 202.5C427.5 202.942 427.324 203.366 427.012 203.679C426.699 203.991 426.275 204.167 425.833 204.167H415.833L412.5 207.5V194.167C412.5 193.725 412.676 193.301 412.988 192.988C413.301 192.676 413.725 192.5 414.167 192.5H425.833C426.275 192.5 426.699 192.676 427.012 192.988C427.324 193.301 427.5 193.725 427.5 194.167V202.5Z" stroke="#E7E1FF" stroke-opacity="0.7" stroke-width="2.08333" stroke-linecap="round" stroke-linejoin="round"/>
<path d="M1111.5 12.5C1111.5 12.942 1111.32 13.366 1111.01 13.6785C1110.7 13.9911 1110.28 14.1667 1109.83 14.1667H1099.83L1096.5 17.5V4.16667C1096.5 3.72464 1096.68 3.30072 1096.99 2.98816C1097.3 2.67559 1097.72 2.5 1098.17 2.5H1109.83C1110.28 2.5 1110.7 2.67559 1111.01 2.98816C1111.32 3.30072 1111.5 3.72464 1111.5 4.16667V12.5Z" stroke="#E7E1FF" stroke-opacity="0.7" stroke-width="2.08333" stroke-linecap="round" stroke-linejoin="round"/>
<path d="M972.5 8.33301C972.5 14.1663 965 19.1663 965 19.1663C965 19.1663 957.5 14.1663 957.5 8.33301C957.5 6.34388 958.29 4.43623 959.697 3.02971C961.103 1.62318 963.011 0.833008 965 0.833008C966.989 0.833008 968.897 1.62318 970.303 3.02971C971.71 4.43623 972.5 6.34388 972.5 8.33301Z" stroke="#E7E1FF" stroke-opacity="0.7" stroke-width="1.66667" stroke-linecap="round" stroke-linejoin="round"/>
<path d="M965 10.833C966.381 10.833 967.5 9.71372 967.5 8.33301C967.5 6.9523 966.381 5.83301 965 5.83301C963.619 5.83301 962.5 6.9523 962.5 8.33301C962.5 9.71372 963.619 10.833 965 10.833Z" stroke="#E7E1FF" stroke-opacity="0.7" stroke-width="1.66667" stroke-linecap="round" stroke-linejoin="round"/>
<path d="M698.369 383.842C697.943 383.416 697.438 383.079 696.882 382.848C696.326 382.618 695.729 382.499 695.127 382.499C694.525 382.499 693.929 382.618 693.373 382.848C692.817 383.079 692.311 383.416 691.886 383.842L691.002 384.726L690.119 383.842C689.259 382.982 688.093 382.499 686.877 382.499C685.662 382.499 684.495 382.982 683.636 383.842C682.776 384.702 682.293 385.868 682.293 387.084C682.293 388.3 682.776 389.466 683.636 390.326L684.519 391.209L691.002 397.692L697.486 391.209L698.369 390.326C698.795 389.9 699.133 389.395 699.363 388.838C699.594 388.282 699.712 387.686 699.712 387.084C699.712 386.482 699.594 385.886 699.363 385.329C699.133 384.773 698.795 384.268 698.369 383.842V383.842Z" stroke="#E7E1FF" stroke-opacity="0.7" stroke-width="1.66667" stroke-linecap="round" stroke-linejoin="round"/>
<path d="M759.5 489.499L767 483.666L774.5 489.499V498.666C774.5 499.108 774.324 499.532 774.012 499.845C773.699 500.157 773.275 500.333 772.833 500.333H761.167C760.725 500.333 760.301 500.157 759.988 499.845C759.676 499.532 759.5 499.108 759.5 498.666V489.499Z" stroke="#E7E1FF" stroke-opacity="0.7" stroke-width="2.08333" stroke-linecap="round" stroke-linejoin="round"/>
<path d="M764.5 500.333V492H769.5V500.333" stroke="#E7E1FF" stroke-opacity="0.7" stroke-width="2.08333" stroke-linecap="round" stroke-linejoin="round"/>
<path d="M774.5 304.5C774.5 304.942 774.324 305.366 774.012 305.679C773.699 305.991 773.275 306.167 772.833 306.167H762.833L759.5 309.5V296.167C759.5 295.725 759.676 295.301 759.988 294.988C760.301 294.676 760.725 294.5 761.167 294.5H772.833C773.275 294.5 773.699 294.676 774.012 294.988C774.324 295.301 774.5 295.725 774.5 296.167V304.5Z" stroke="#E7E1FF" stroke-opacity="0.7" stroke-width="2.08333" stroke-linecap="round" stroke-linejoin="round"/>
<path d="M635.5 300.333C635.5 306.166 628 311.166 628 311.166C628 311.166 620.5 306.166 620.5 300.333C620.5 298.344 621.29 296.436 622.697 295.03C624.103 293.623 626.011 292.833 628 292.833C629.989 292.833 631.897 293.623 633.303 295.03C634.71 296.436 635.5 298.344 635.5 300.333Z" stroke="#E7E1FF" stroke-opacity="0.7" stroke-width="1.66667" stroke-linecap="round" stroke-linejoin="round"/>
<path d="M628 302.833C629.381 302.833 630.5 301.714 630.5 300.333C630.5 298.952 629.381 297.833 628 297.833C626.619 297.833 625.5 298.952 625.5 300.333C625.5 301.714 626.619 302.833 628 302.833Z" stroke="#E7E1FF" stroke-opacity="0.7" stroke-width="1.66667" stroke-linecap="round" stroke-linejoin="round"/>
<path d="M816.625 389.39L833.25 381.707L825.375 397.927L823.625 391.097L816.625 389.39Z" stroke="#E7E1FF" stroke-opacity="0.7" stroke-width="1.96341" stroke-linecap="round" stroke-linejoin="round"/>
<path d="M965.369 383.842C964.943 383.416 964.438 383.079 963.882 382.848C963.326 382.618 962.729 382.499 962.127 382.499C961.525 382.499 960.929 382.618 960.373 382.848C959.817 383.079 959.311 383.416 958.886 383.842L958.002 384.726L957.119 383.842C956.259 382.982 955.093 382.499 953.877 382.499C952.662 382.499 951.495 382.982 950.636 383.842C949.776 384.702 949.293 385.868 949.293 387.084C949.293 388.3 949.776 389.466 950.636 390.326L951.519 391.209L958.002 397.692L964.486 391.209L965.369 390.326C965.795 389.9 966.133 389.395 966.363 388.838C966.594 388.282 966.712 387.686 966.712 387.084C966.712 386.482 966.594 385.886 966.363 385.329C966.133 384.773 965.795 384.268 965.369 383.842V383.842Z" stroke="#E7E1FF" stroke-opacity="0.7" stroke-width="1.66667" stroke-linecap="round" stroke-linejoin="round"/>
<path d="M1026.5 489.499L1034 483.666L1041.5 489.499V498.666C1041.5 499.108 1041.32 499.532 1041.01 499.845C1040.7 500.157 1040.28 500.333 1039.83 500.333H1028.17C1027.72 500.333 1027.3 500.157 1026.99 499.845C1026.68 499.532 1026.5 499.108 1026.5 498.666V489.499Z" stroke="#E7E1FF" stroke-opacity="0.7" stroke-width="2.08333" stroke-linecap="round" stroke-linejoin="round"/>
<path d="M1031.5 500.333V492H1036.5V500.333" stroke="#E7E1FF" stroke-opacity="0.7" stroke-width="2.08333" stroke-linecap="round" stroke-linejoin="round"/>
<path d="M902.5 494.5C902.5 494.942 902.324 495.366 902.012 495.679C901.699 495.991 901.275 496.167 900.833 496.167H890.833L887.5 499.5V486.167C887.5 485.725 887.676 485.301 887.988 484.988C888.301 484.676 888.725 484.5 889.167 484.5H900.833C901.275 484.5 901.699 484.676 902.012 484.988C902.324 485.301 902.5 485.725 902.5 486.167V494.5Z" stroke="#E7E1FF" stroke-opacity="0.7" stroke-width="2.08333" stroke-linecap="round" stroke-linejoin="round"/>
<path d="M1041.5 304.5C1041.5 304.942 1041.32 305.366 1041.01 305.679C1040.7 305.991 1040.28 306.167 1039.83 306.167H1029.83L1026.5 309.5V296.167C1026.5 295.725 1026.68 295.301 1026.99 294.988C1027.3 294.676 1027.72 294.5 1028.17 294.5H1039.83C1040.28 294.5 1040.7 294.676 1041.01 294.988C1041.32 295.301 1041.5 295.725 1041.5 296.167V304.5Z" stroke="#E7E1FF" stroke-opacity="0.7" stroke-width="2.08333" stroke-linecap="round" stroke-linejoin="round"/>
<path d="M902.5 300.333C902.5 306.166 895 311.166 895 311.166C895 311.166 887.5 306.166 887.5 300.333C887.5 298.344 888.29 296.436 889.697 295.03C891.103 293.623 893.011 292.833 895 292.833C896.989 292.833 898.897 293.623 900.303 295.03C901.71 296.436 902.5 298.344 902.5 300.333Z" stroke="#E7E1FF" stroke-opacity="0.7" stroke-width="1.66667" stroke-linecap="round" stroke-linejoin="round"/>
<path d="M895 302.833C896.381 302.833 897.5 301.714 897.5 300.333C897.5 298.952 896.381 297.833 895 297.833C893.619 297.833 892.5 298.952 892.5 300.333C892.5 301.714 893.619 302.833 895 302.833Z" stroke="#E7E1FF" stroke-opacity="0.7" stroke-width="1.66667" stroke-linecap="round" stroke-linejoin="round"/>
<path d="M1096.62 389.39L1113.25 381.707L1105.38 397.927L1103.63 391.097L1096.62 389.39Z" stroke="#E7E1FF" stroke-opacity="0.7" stroke-width="1.96341" stroke-linecap="round" stroke-linejoin="round"/>
<path d="M2.5 197.499L10 191.666L17.5 197.499V206.666C17.5 207.108 17.3244 207.532 17.0118 207.845C16.6993 208.157 16.2754 208.333 15.8333 208.333H4.16667C3.72464 208.333 3.30072 208.157 2.98816 207.845C2.67559 207.532 2.5 207.108 2.5 206.666V197.499Z" stroke="#E7E1FF" stroke-opacity="0.7" stroke-width="2.08333" stroke-linecap="round" stroke-linejoin="round"/>
<path d="M7.5 208.333V200H12.5V208.333" stroke="#E7E1FF" stroke-opacity="0.7" stroke-width="2.08333" stroke-linecap="round" stroke-linejoin="round"/>
<path d="M17.5 12.5C17.5 12.942 17.3244 13.366 17.0118 13.6785C16.6993 13.9911 16.2754 14.1667 15.8333 14.1667H5.83333L2.5 17.5V4.16667C2.5 3.72464 2.67559 3.30072 2.98816 2.98816C3.30072 2.67559 3.72464 2.5 4.16667 2.5H15.8333C16.2754 2.5 16.6993 2.67559 17.0118 2.98816C17.3244 3.30072 17.5 3.72464 17.5 4.16667V12.5Z" stroke="#E7E1FF" stroke-opacity="0.7" stroke-width="2.08333" stroke-linecap="round" stroke-linejoin="round"/>
<path d="M2.625 389.39L19.25 381.707L11.375 397.927L9.625 391.097L2.625 389.39Z" stroke="#E7E1FF" stroke-opacity="0.7" stroke-width="1.96341" stroke-linecap="round" stroke-linejoin="round"/>
<path d="M1163 105V100C1163 98.0109 1163.79 96.1032 1165.2 94.6967C1166.6 93.2902 1168.51 92.5 1170.5 92.5C1172.49 92.5 1174.4 93.2902 1175.8 94.6967C1177.21 96.1032 1178 98.0109 1178 100V105" stroke="#E7E1FF" stroke-opacity="0.7" stroke-width="2.5" stroke-linecap="round" stroke-linejoin="round"/>
<path d="M1178 105.833C1178 106.275 1177.82 106.699 1177.51 107.011C1177.2 107.324 1176.78 107.499 1176.33 107.499H1175.5C1175.06 107.499 1174.63 107.324 1174.32 107.011C1174.01 106.699 1173.83 106.275 1173.83 105.833V103.333C1173.83 102.891 1174.01 102.467 1174.32 102.154C1174.63 101.842 1175.06 101.666 1175.5 101.666H1178V105.833ZM1163 105.833C1163 106.275 1163.18 106.699 1163.49 107.011C1163.8 107.324 1164.22 107.499 1164.67 107.499H1165.5C1165.94 107.499 1166.37 107.324 1166.68 107.011C1166.99 106.699 1167.17 106.275 1167.17 105.833V103.333C1167.17 102.891 1166.99 102.467 1166.68 102.154C1166.37 101.842 1165.94 101.666 1165.5 101.666H1163V105.833Z" stroke="#E7E1FF" stroke-opacity="0.7" stroke-width="2.5" stroke-linecap="round" stroke-linejoin="round"/>
<path d="M1310.87 93.8422C1310.44 93.4164 1309.94 93.0786 1309.38 92.8481C1308.83 92.6176 1308.23 92.499 1307.63 92.499C1307.03 92.499 1306.43 92.6176 1305.87 92.8481C1305.32 93.0786 1304.81 93.4164 1304.39 93.8422L1303.5 94.7255L1302.62 93.8422C1301.76 92.9825 1300.59 92.4995 1299.38 92.4995C1298.16 92.4995 1297 92.9825 1296.14 93.8422C1295.28 94.702 1294.79 95.868 1294.79 97.0839C1294.79 98.2997 1295.28 99.4658 1296.14 100.326L1297.02 101.209L1303.5 107.692L1309.99 101.209L1310.87 100.326C1311.29 99.8999 1311.63 99.3946 1311.86 98.8383C1312.09 98.2821 1312.21 97.686 1312.21 97.0839C1312.21 96.4818 1312.09 95.8856 1311.86 95.3294C1311.63 94.7732 1311.29 94.2678 1310.87 93.8422V93.8422Z" stroke="#E7E1FF" stroke-opacity="0.7" stroke-width="1.66667" stroke-linecap="round" stroke-linejoin="round"/>
<path d="M1248 204.5C1248 204.942 1247.82 205.366 1247.51 205.679C1247.2 205.991 1246.78 206.167 1246.33 206.167H1236.33L1233 209.5V196.167C1233 195.725 1233.18 195.301 1233.49 194.988C1233.8 194.676 1234.22 194.5 1234.67 194.5H1246.33C1246.78 194.5 1247.2 194.676 1247.51 194.988C1247.82 195.301 1248 195.725 1248 196.167V204.5Z" stroke="#E7E1FF" stroke-opacity="0.7" stroke-width="2.08333" stroke-linecap="round" stroke-linejoin="round"/>
<path d="M1178 494C1178 494.442 1177.82 494.866 1177.51 495.179C1177.2 495.491 1176.78 495.667 1176.33 495.667H1166.33L1163 499V485.667C1163 485.225 1163.18 484.801 1163.49 484.488C1163.8 484.176 1164.22 484 1164.67 484H1176.33C1176.78 484 1177.2 484.176 1177.51 484.488C1177.82 484.801 1178 485.225 1178 485.667V494Z" stroke="#E7E1FF" stroke-opacity="0.7" stroke-width="2.08333" stroke-linecap="round" stroke-linejoin="round"/>
<path d="M1248 10.333C1248 16.1663 1240.5 21.1663 1240.5 21.1663C1240.5 21.1663 1233 16.1663 1233 10.333C1233 8.34388 1233.79 6.43623 1235.2 5.02971C1236.6 3.62318 1238.51 2.83301 1240.5 2.83301C1242.49 2.83301 1244.4 3.62318 1245.8 5.02971C1247.21 6.43623 1248 8.34388 1248 10.333Z" stroke="#E7E1FF" stroke-opacity="0.7" stroke-width="1.66667" stroke-linecap="round" stroke-linejoin="round"/>
<path d="M1240.5 12.833C1241.88 12.833 1243 11.7137 1243 10.333C1243 8.9523 1241.88 7.83301 1240.5 7.83301C1239.12 7.83301 1238 8.9523 1238 10.333C1238 11.7137 1239.12 12.833 1240.5 12.833Z" stroke="#E7E1FF" stroke-opacity="0.7" stroke-width="1.66667" stroke-linecap="round" stroke-linejoin="round"/>
<path d="M1240.87 385.842C1240.44 385.416 1239.94 385.079 1239.38 384.848C1238.83 384.618 1238.23 384.499 1237.63 384.499C1237.03 384.499 1236.43 384.618 1235.87 384.848C1235.32 385.079 1234.81 385.416 1234.39 385.842L1233.5 386.726L1232.62 385.842C1231.76 384.982 1230.59 384.499 1229.38 384.499C1228.16 384.499 1227 384.982 1226.14 385.842C1225.28 386.702 1224.79 387.868 1224.79 389.084C1224.79 390.3 1225.28 391.466 1226.14 392.326L1227.02 393.209L1233.5 399.692L1239.99 393.209L1240.87 392.326C1241.29 391.9 1241.63 391.395 1241.86 390.838C1242.09 390.282 1242.21 389.686 1242.21 389.084C1242.21 388.482 1242.09 387.886 1241.86 387.329C1241.63 386.773 1241.29 386.268 1240.87 385.842Z" stroke="#E7E1FF" stroke-opacity="0.7" stroke-width="1.66667" stroke-linecap="round" stroke-linejoin="round"/>
<path d="M1317 306.5C1317 306.942 1316.82 307.366 1316.51 307.679C1316.2 307.991 1315.78 308.167 1315.33 308.167H1305.33L1302 311.5V298.167C1302 297.725 1302.18 297.301 1302.49 296.988C1302.8 296.676 1303.22 296.5 1303.67 296.5H1315.33C1315.78 296.5 1316.2 296.676 1316.51 296.988C1316.82 297.301 1317 297.725 1317 298.167V306.5Z" stroke="#E7E1FF" stroke-opacity="0.7" stroke-width="2.08333" stroke-linecap="round" stroke-linejoin="round"/>
<path d="M1178 302.333C1178 308.166 1170.5 313.166 1170.5 313.166C1170.5 313.166 1163 308.166 1163 302.333C1163 300.344 1163.79 298.436 1165.2 297.03C1166.6 295.623 1168.51 294.833 1170.5 294.833C1172.49 294.833 1174.4 295.623 1175.8 297.03C1177.21 298.436 1178 300.344 1178 302.333Z" stroke="#E7E1FF" stroke-opacity="0.7" stroke-width="1.66667" stroke-linecap="round" stroke-linejoin="round"/>
<path d="M1170.5 304.833C1171.88 304.833 1173 303.714 1173 302.333C1173 300.952 1171.88 299.833 1170.5 299.833C1169.12 299.833 1168 300.952 1168 302.333C1168 303.714 1169.12 304.833 1170.5 304.833Z" stroke="#E7E1FF" stroke-opacity="0.7" stroke-width="1.66667" stroke-linecap="round" stroke-linejoin="round"/>
<path d="M1302.5 489.499L1310 483.666L1317.5 489.499V498.666C1317.5 499.108 1317.32 499.532 1317.01 499.845C1316.7 500.157 1316.28 500.333 1315.83 500.333H1304.17C1303.72 500.333 1303.3 500.157 1302.99 499.845C1302.68 499.532 1302.5 499.108 1302.5 498.666V489.499Z" stroke="#E7E1FF" stroke-opacity="0.7" stroke-width="2.08333" stroke-linecap="round" stroke-linejoin="round"/>
<path d="M1307.5 500.333V492H1312.5V500.333" stroke="#E7E1FF" stroke-opacity="0.7" stroke-width="2.08333" stroke-linecap="round" stroke-linejoin="round"/>
<path d="M635.5 496.5C635.5 496.942 635.324 497.366 635.012 497.679C634.699 497.991 634.275 498.167 633.833 498.167H623.833L620.5 501.5V488.167C620.5 487.725 620.676 487.301 620.988 486.988C621.301 486.676 621.725 486.5 622.167 486.5H633.833C634.275 486.5 634.699 486.676 635.012 486.988C635.324 487.301 635.5 487.725 635.5 488.167V496.5Z" stroke="#E7E1FF" stroke-opacity="0.7" stroke-width="2.08333" stroke-linecap="round" stroke-linejoin="round"/>
<path d="M551.5 197.499L559 191.666L566.5 197.499V206.666C566.5 207.108 566.324 207.532 566.012 207.845C565.699 208.157 565.275 208.333 564.833 208.333H553.167C552.725 208.333 552.301 208.157 551.988 207.845C551.676 207.532 551.5 207.108 551.5 206.666V197.499Z" stroke="#E7E1FF" stroke-opacity="0.7" stroke-width="2.08333" stroke-linecap="round" stroke-linejoin="round"/>
<path d="M556.5 208.333V200H561.5V208.333" stroke="#E7E1FF" stroke-opacity="0.7" stroke-width="2.08333" stroke-linecap="round" stroke-linejoin="round"/>
<path d="M90.5 494.5C90.5 494.942 90.3244 495.366 90.0118 495.679C89.6993 495.991 89.2754 496.167 88.8333 496.167H78.8333L75.5 499.5V486.167C75.5 485.725 75.6756 485.301 75.9882 484.988C76.3007 484.676 76.7246 484.5 77.1667 484.5H88.8333C89.2754 484.5 89.6993 484.676 90.0118 484.988C90.3244 485.301 90.5 485.725 90.5 486.167V494.5Z" stroke="#E7E1FF" stroke-opacity="0.7" stroke-width="2.08333" stroke-linecap="round" stroke-linejoin="round"/>
</svg>
