<?xml version="1.0" encoding="UTF-8"?>
<svg width="159px" height="256px" viewBox="0 0 159 256" version="1.1" xmlns="http://www.w3.org/2000/svg" xmlns:xlink="http://www.w3.org/1999/xlink">
    <!-- Generator: Sketch 50.2 (55047) - http://www.bohemiancoding.com/sketch -->
    <title>chloe - closed eyes copy</title>
    <desc>Created with Sketch.</desc>
    <defs></defs>
    <g id="Page-1" stroke="none" stroke-width="1" fill="none" fill-rule="evenodd">
        <g id="final!" transform="translate(-641.000000, -311.000000)">
            <g id="chloe---closed-eyes-copy" transform="translate(641.000000, 311.000000)">
                <path d="M101.181818,154.332175 C101.21474,148.526919 103.48613,144.614394 107.995986,142.5946 C112.505843,140.574806 127.770812,136.63346 153.790893,130.770563 C156.814747,132.136915 157.541445,133.299782 155.970988,134.259163 C154.400531,135.218545 136.137475,144.768521 101.181818,162.909091 L101.181818,154.332175 Z" id="arm2" fill="#F7E1C9"></path>
                <path d="M12.2307692,145.381406 L64.4326719,120.796537 C65.9909742,122.791461 65.9909742,124.289446 64.4326719,125.290493 C63.2540738,126.047619 42.8123101,150.354215 23.5087503,161.040915 C4.20519047,171.727615 20.3309281,149.857317 12.2307692,154.330809 L12.2307692,145.381406 Z" id="arm1" fill="#F7E1C9" transform="translate(38.916084, 142.406926) rotate(-122.000000) translate(-38.916084, -142.406926) "></path>
                <path d="M63.8038009,248.492094 L57.8181818,200.691598 L69.7894199,200.691598 C73.9435446,200.254428 75.8734681,201.210878 75.5791903,203.560948 C75.3508334,205.384581 74.3904989,226.931384 69.7894199,243.96199 C66.7220339,255.315727 64.7268276,256.825762 63.8038009,248.492094 Z" id="Triangle" fill="#F7E1C9"></path>
                <path d="M99.5238972,248.242424 C95.1318363,236.816057 92.4180352,229.232825 91.382494,225.492726 C89.8291823,219.882579 88.8114005,204.34072 88.1307502,199.301792 C87.1091666,191.7389 88.7719224,190.805663 93.1190175,196.502083 L105.629371,196.502083 C104.94607,209.443669 104.227668,219.107216 103.474164,225.492726 C102.72066,231.878236 101.403904,239.461469 99.5238972,248.242424 Z" id="Triangle-Copy" fill="#F7E1C9"></path>
                <path d="M94.9611527,114.271865 C97.6188882,112.434572 99.2582286,112.434572 99.8791737,114.271865 C100.297903,115.51083 109.563323,116.51557 113.672631,144.603024 C115.508378,157.150504 113.7477,175.885913 117.039485,190.698991 C119.234009,200.574377 120.887514,206.008046 122,207 C117.542565,208.816295 113.875899,209.816295 111,210 C106.562312,210.283469 102.696259,210 99.8791737,210 C96.8165588,210 93.5108679,209.335035 90,209 C88.0947903,208.81819 85.0947903,208.600297 81,208.34632 C71.2222222,207.448773 64.5555556,207 61,207 C57.4444444,207 50.7777778,207 41,207 C41.6652151,203.33058 43.0627953,196.634909 45.1927406,186.912986 C47.1616785,177.925965 45.2407044,156.862177 47.9823725,139.188304 C50.7240406,121.514431 55.8378413,118.093535 57.8134545,114.271865 C67.0657468,96.3740248 79.4483129,96.3740248 94.9611527,114.271865 Z" id="body" fill="#FEC6C6"></path>
                <ellipse id="face" fill="#F7E0C8" cx="78.9440559" cy="65.9393939" rx="56.7062937" ry="60.3982684"></ellipse>
                <g id="nose" transform="translate(75.608392, 77.575758)">
                    <path d="M4.65301003,0.431722618 L4.65301003,9.06617498" id="Line" stroke="#DDBC90" stroke-linecap="square"></path>
                    <ellipse id="Oval" fill="#B2855D" cx="4.65301003" cy="13.3834012" rx="4.65301003" ry="1.29516785"></ellipse>
                </g>
                <path d="M143.992843,137.419913 C148.236739,137.419913 159,134.446786 159,130.752336 C159,127.057886 155.808764,125.229437 151.564869,125.229437 C147.320973,125.229437 141.621129,128.526576 141.621129,132.221026 C141.621129,135.915476 139.748948,137.419913 143.992843,137.419913 Z" id="Oval-2" fill="#F7E1C9"></path>
                <path d="M11.0418677,132.987013 C15.2534587,132.987013 15.5664336,132.647807 15.5664336,128.805841 C15.5664336,127.169697 13.6924808,126.213993 12.5140308,125.2723 C11.3355808,124.330606 8.33470631,123.012987 5.9166678,123.012987 C3.34227832,123.012987 2.6418465,123.206252 1.68421363,124.020917 C0.726580756,124.835582 0,125.781158 0,127.274673 C0,131.11664 6.83027679,132.987013 11.0418677,132.987013 Z" id="Oval-2-Copy" fill="#F7E1C9"></path>
                <ellipse id="Oval-Copy" fill="#083D77" cx="66.7132867" cy="249.904762" rx="8.8951049" ry="6.0952381"></ellipse>
                <ellipse id="Oval-Copy" fill="#083D77" cx="100.06993" cy="249.904762" rx="8.8951049" ry="6.0952381"></ellipse>
                <path d="M80.5459452,113.038961 C88.593923,113.038961 92.8781418,107.867244 93.3986014,97.5238095 L67.8251748,97.6382619 C68.2577106,107.905395 72.4979674,113.038961 80.5459452,113.038961 Z" id="Path-9" fill="#C26666"></path>
                <g id="left-eye" transform="translate(53.945704, 77.080861) rotate(-179.000000) translate(-53.945704, -77.080861) translate(40.047103, 70.985623)" stroke="#000000" stroke-linecap="square">
                    <path d="M0.377679386,0.400885288 C6.19071638,3.54384925 10.722869,5.11533123 13.9741373,5.11533123 C17.2254055,5.11533123 21.7575582,3.54384925 27.5705952,0.400885288" id="Line"></path>
                    <path d="M7.17590833,3.6079676 L4.15447324,8.41859106" id="Line"></path>
                    <path d="M13.2187785,5.21150875 L13.2187785,10.8239028" id="Line"></path>
                    <path d="M20.0170074,4.40973817 L23.7938013,9.22036163" id="Line"></path>
                </g>
                <g id="right-eye" transform="translate(106.185315, 78.129870) rotate(-180.000000) translate(-106.185315, -78.129870) translate(92.286713, 72.034632)" stroke-linecap="square">
                    <path d="M0.341129768,0.367478181 C6.40120273,3.3653613 10.9495996,4.86430286 13.9863205,4.86430286 C17.0230413,4.86430286 21.5714382,3.3653613 27.6315112,0.367478181" id="Line" stroke="#000000"></path>
                    <path d="M5.79920605,3.30730363 L3.07016791,7.7170418" id="Line" stroke="#0F0000"></path>
                    <path d="M13.3040609,4.77721635 L13.3040609,11.3918236" id="Line" stroke="#000000"></path>
                    <path d="M20.1266563,3.30730363 L24.2202135,7.7170418" id="Line" stroke="#000000"></path>
                </g>
                <path d="M81.7237762,33.4823295 C91.2350346,33.4823295 94.7778436,40.6185645 97.8703858,44.1702701 C100.962928,47.7219756 104.026611,48.9987678 108.906895,54.0363031 C118.076687,63.5015601 133.104528,59.9181018 130.317111,80.1689254 C129.526523,85.9126142 124.840734,93.8582929 122.45236,97.3177558 C120.063986,100.777219 114.152507,108.507438 112.420614,112.618506 C110.622164,116.887566 110.002039,120.914377 110.560241,124.698939 C110.732144,133.487863 111.768678,136.76165 113.669842,134.5203 C116.521588,131.158276 135.99329,98.3782174 137.931305,93.6136797 C140.869002,86.3914594 142.703089,72.8475499 143.433566,52.9819509 C142.005279,33.9622502 137.633127,21.5746636 130.317111,15.819191 C125.373713,11.930245 121.296475,8.18740809 108.242887,4.73896333 C99.5404961,2.44000015 90.7007923,0.860345712 81.7237762,0 C68.670654,0.514366542 59.9024441,1.33898687 55.4191464,2.47386099 C48.6941998,4.17617216 37.9691734,11.1147718 33.4262282,14.5458213 C26.3056503,19.9236222 21.8434304,34.6128731 20.0395685,58.6135738 C19.8355859,78.8548545 20.8514498,91.7562485 23.0871601,97.3177558 C25.3228705,102.879263 33.6395575,114.564393 48.0372212,132.373147 C50.1887864,122.757312 50.8698974,117.16133 50.080554,115.585201 C48.896539,113.221008 38.8865075,103.400053 37.6317408,100.401286 C36.072013,96.6736915 33.3584407,88.0007943 29.491024,74.3825942 C31.9777081,71.3955977 36.3883217,67.6691207 42.7228648,63.2031633 C46.524733,60.5227834 55.9170255,57.0674481 60.5665978,50.7575784 C65.2161702,44.4477088 71.473653,33.4823295 81.7237762,33.4823295 Z" id="hair" fill="#6A0000"></path>
                <g id="glasses" transform="translate(28.909091, 67.601732)" stroke="#936262">
                    <rect id="Rectangle-9" x="60.541958" y="0.5" width="34.5804196" height="26.7056277" rx="5"></rect>
                    <path d="M12.7832168,0.5 C10.2979354,0.5 8.28321678,2.51471863 8.28321678,5 L8.28321678,22.7056277 C8.28321678,25.1909091 10.2979354,27.2056277 12.7832168,27.2056277 L38.3636364,27.2056277 C40.8489177,27.2056277 42.8636364,25.1909091 42.8636364,22.7056277 L42.8636364,3.14836678 C42.8636364,1.6857142 41.6779222,0.5 40.2152696,0.5 L12.7832168,0.5 Z" id="Rectangle-9"></path>
                    <path d="M42.8076923,13.8528139 L59.486014,13.8528139" id="Line-9" stroke-linecap="square"></path>
                    <path d="M95.0664336,11.6363636 L102.84965,11.6363636" id="Line-10" stroke-linecap="square"></path>
                    <path d="M8.33916084,8.31168831 L0.555944056,8.31168831" id="Line-11" stroke-linecap="square"></path>
                </g>
            </g>
        </g>
    </g>
</svg>