<?xml version="1.0" encoding="UTF-8" standalone="no"?>
<svg
   xmlns:dc="http://purl.org/dc/elements/1.1/"
   xmlns:cc="http://creativecommons.org/ns#"
   xmlns:rdf="http://www.w3.org/1999/02/22-rdf-syntax-ns#"
   xmlns:svg="http://www.w3.org/2000/svg"
   xmlns="http://www.w3.org/2000/svg"
   xmlns:sodipodi="http://sodipodi.sourceforge.net/DTD/sodipodi-0.dtd"
   xmlns:inkscape="http://www.inkscape.org/namespaces/inkscape"
   version="1.1"
   id="Layer_1"
   x="0px"
   y="0px"
   viewBox="0 0 31.418055 30.97207"
   style="enable-background:new 0 0 106.7 33.7;"
   xml:space="preserve"
   sodipodi:docname="logo.svg"
   inkscape:version="0.92.2 5c3e80d, 2017-08-06"><metadata
     id="metadata17"><rdf:RDF><cc:Work
         rdf:about=""><dc:format>image/svg+xml</dc:format><dc:type
           rdf:resource="http://purl.org/dc/dcmitype/StillImage" /></cc:Work></rdf:RDF></metadata><defs
     id="defs15" /><sodipodi:namedview
     pagecolor="#ffffff"
     bordercolor="#666666"
     borderopacity="1"
     objecttolerance="10"
     gridtolerance="10"
     guidetolerance="10"
     inkscape:pageopacity="0"
     inkscape:pageshadow="2"
     inkscape:window-width="640"
     inkscape:window-height="480"
     id="namedview13"
     showgrid="false"
     inkscape:zoom="7.6197682"
     inkscape:cx="15.709027"
     inkscape:cy="15.486035"
     inkscape:window-x="276"
     inkscape:window-y="466"
     inkscape:window-maximized="0"
     inkscape:current-layer="Layer_1" /><style
     type="text/css"
     id="style2">
	.st0{fill:#006595;}
	.st1{fill:#B0BC22;}
</style><g
     id="g10"
     transform="translate(0.26247518,-1.1811383)"><path
       class="st0"
       d="m 22.2,14.1 c 1.6,0 3.1,0.4 4.4,1.2 0.7,0.4 1.3,0.9 1.8,1.4 1.2,1.2 2,2.7 2.4,4.4 0,-0.1 0.1,-0.2 0.1,-0.4 C 32.7,13.9 29.7,6.6 23.6,3.1 22.4,2.4 21.1,1.9 19.8,1.5 19.2,1.3 18.6,1.3 18.1,1.3 c -3,0 -5.7,2 -6.5,5 -0.8,2.9 0.5,6 3.1,7.5 0.5,0.3 1.1,0.5 1.6,0.7 0.6,0.2 1.2,0.2 1.7,0.2 0.6,0 1.3,-0.1 1.9,-0.3 0.8,-0.2 1.5,-0.3 2.3,-0.3"
       id="path4"
       inkscape:connector-curvature="0"
       style="fill:#006595" /><path
       class="st1"
       d="M 10.4,12.4 C 9.6,11 9.2,9.5 9.2,8 9.2,7.2 9.3,6.5 9.5,5.7 9.9,4.1 10.9,2.6 12.1,1.4 12,1.4 11.9,1.5 11.7,1.5 4.8,3.4 0,9.6 0,16.6 c 0,1.4 0.2,2.7 0.5,4.1 0.2,0.6 0.4,1.1 0.7,1.6 1.5,2.6 4.6,3.9 7.6,3.1 2.9,-0.8 5,-3.4 5,-6.5 0,-0.6 -0.1,-1.2 -0.2,-1.7 -0.2,-0.6 -0.4,-1.1 -0.7,-1.6 -0.3,-0.5 -0.7,-1 -1.2,-1.5 -0.5,-0.5 -1,-1.1 -1.3,-1.7"
       id="path6"
       inkscape:connector-curvature="0"
       style="fill:#b0bc22" /><path
       class="st1"
       d="m 14.7,23.4 c -0.8,1.3 -1.9,2.5 -3.3,3.2 -0.7,0.4 -1.4,0.7 -2.1,0.9 -1.6,0.4 -3.4,0.4 -5,-0.1 0.1,0.1 0.2,0.2 0.3,0.3 5,5 12.9,6 19,2.5 1.2,-0.7 2.3,-1.5 3.3,-2.5 0.4,-0.4 0.8,-0.9 1.1,-1.4 1.5,-2.6 1.1,-5.9 -1.1,-8.1 -2.2,-2.1 -5.5,-2.6 -8.1,-1.1 -0.5,0.3 -1,0.6 -1.4,1.1 -0.4,0.4 -0.8,0.9 -1.1,1.4 -0.3,0.5 -0.5,1.1 -0.7,1.7 -0.2,0.8 -0.5,1.5 -0.9,2.1"
       id="path8"
       inkscape:connector-curvature="0"
       style="fill:#b0bc22" /></g></svg>